# xmcd
#
# Track frame offsets:
#	150
#	11929
#	22077
#	34673
#	46020
#	60119
#	70123
#	81229
#	93913
#	105600
#	118757
#	133357
#	146045
#	160336
#	173715
#	186827
#	199026
#	211393
#	224018
#	235666
#
# Disc length: 3311 seconds
# Revision: 1
# Processed by: cddbd v1.5.2PL0 Copyright (c) Steve Scherf et al.
# Submitted via: dBpowerAMP V12.0
#
DISCID=1f0ced14
DTITLE=Various Artist - Drink Drugs Sex - CD3
DYEAR=1951
DGENRE=Blues
TTITLE0=Swallows, The - It Ain't The Meat (It's The Motion)
TTITLE1=David Bartholomew - My Ding-A-Ling
TTITLE2=Bessie Smith - I Need A Little Sugar In My Bowl
TTITLE3=Billy Ward and his Dominoes - Sixty Minute Man
TTITLE4=Lucille Bogan - Shave 'Em Dry
TTITLE5=Moose Jackson with Orchestra - Big Ten-Inch Record
TTITLE6=Smiley Lewis - One Night (Of Sin)
TTITLE7=Blind Boy Fuller - Sweet Honey Hole
TTITLE8=Treniers, The - Poon Tang
TTITLE9=Annisteen Allen and her Home Town Boys - I Want A Man (Who's Gonna Do Right)
TTITLE10=Joe Turner With Bill Moore's Lucky Seven Band - My Gal's A Jockey
TTITLE11=Mae Glover - Gas Man Blues
TTITLE12=Dinah Washington - Long John Blues
TTITLE13=Dorothy Ellis - Drill, Daddy, Drill
TTITLE14=Jesse Powell Orchestra with Fluffy Hunter - The Walkin' Blues (Walk Right In, Walk Right Out)
TTITLE15=Julia Lee and her Boy Friends - King Size Papa
TTITLE16=Victoria Spivey - One Hour Mama
TTITLE17=Tom Archia And His All Stars - Fishin' Pole
TTITLE18=Crown Prince Waterford - Move Your Hand Baby
TTITLE19=Lucille Bogan - Struttin' My Stuff
EXTD=
EXTT0=
EXTT1=
EXTT2=
EXTT3=
EXTT4=
EXTT5=
EXTT6=
EXTT7=
EXTT8=
EXTT9=
EXTT10=
EXTT11=
EXTT12=
EXTT13=
EXTT14=
EXTT15=
EXTT16=
EXTT17=
EXTT18=
EXTT19=
PLAYORDER=
